<?xml version="1.0" encoding="UTF-8"?>
<!-- Generated by Pixelmator Pro 3.7.1 -->
<svg width="512" height="512" viewBox="0 0 512 512" xmlns="http://www.w3.org/2000/svg">
    <g id="Logo-Master">
        <path id="Shape" fill="#881337" fill-rule="evenodd" stroke="none" d="M 350.073639 301 C 280.987091 368.8125 259.820526 389.375366 258.464844 390.445251 L 256 392.390503 L 253.5513 390.445251 C 252.204514 389.375366 223.856827 361.950012 190.556442 329.5 C 157.256073 297.049988 130.00798 269.760651 130.005157 268.856995 C 130.002319 267.953339 130.711807 266.940826 131.581787 266.606995 C 132.451767 266.273132 167.889267 266.006897 210.331787 266.01532 C 252.774307 266.023743 288.106781 266.415161 288.848389 266.885132 C 289.589996 267.355103 290.040009 268.405396 289.848389 269.219116 C 289.656769 270.032806 283.875 276.678772 277 283.987915 C 270.125 291.297028 263.149994 298.113159 261.5 299.134888 C 258.907928 300.739929 256.348358 300.993042 242.676682 300.996277 C 229.6353 300.999329 226.910202 301.245911 227.176682 302.39859 C 227.354507 303.167816 233.528351 310.165466 240.896317 317.948975 C 250.199661 327.776978 254.861588 332.008972 256.154785 331.800354 C 257.178986 331.635162 271.927185 317.549988 288.928589 300.5 C 305.929993 283.450012 321.338684 268.713196 323.170135 267.751556 C 326.268799 266.124512 332.766266 266.002991 416.75 266.001556 C 502.674194 266.000061 507 266.085449 507 267.783081 C 507 268.853516 458.628143 315.315369 385.9711 384.033081 C 319.405182 446.989899 263.492706 499.715271 261.7211 501.200623 C 259.949493 502.685974 257.766266 504.175995 256.869476 504.51178 C 255.776474 504.921021 253.06395 503.206573 248.641327 499.311127 C 245.012619 496.115021 188.933853 443.355255 124.021843 382.067261 C 56.768852 318.568939 6 269.898804 6 268.924225 C 6 267.983582 6.711804 266.940826 7.581788 266.606995 C 8.451771 266.273132 21.83927 266.001678 37.331787 266.003723 C 63.155415 266.007172 65.749702 266.163818 68.5 267.88562 C 70.150002 268.918579 112.644089 309.979431 162.931305 359.131897 C 213.218521 408.284363 255.103943 448.5 256.01001 448.5 C 256.916077 448.5 291.25946 415.895508 332.328705 376.045593 C 373.397919 336.195679 407 303.008179 407 302.295593 C 407 301.265137 401.174866 301 378.536804 301 L 350.073639 301 Z"/>
        <path id="path1" fill="#0f172a" fill-rule="evenodd" stroke="none" d="M 108 147.609497 C 111.823059 150.624634 117.472549 156.843506 123.020905 163.374481 C 130.502411 172.180969 133.030182 175.848297 132.804413 177.568634 C 132.619476 178.977783 126.67894 185.78476 117.670067 194.910309 C 109.513596 203.172394 103.127655 210.397522 103.47908 210.966156 C 103.895271 211.639557 114.245224 212 133.165588 212 C 162.213165 212 162.213165 212 169.495163 204.884583 C 173.500259 200.97113 179.114548 195.491577 181.971359 192.707794 C 185.790726 188.986115 187.055588 187.071106 186.750076 185.4729 C 186.521545 184.277466 180.52179 176.538208 173.417282 168.274567 C 166.312775 160.010895 157.574997 149.764099 154 145.503906 C 150.425003 141.243713 144.912506 134.82077 141.75 131.230713 C 138.587494 127.640625 136 123.967133 136 123.067352 C 136 122.167572 144.037354 113.796814 153.860794 104.465698 C 163.684235 95.134583 178.196732 81.463959 186.110794 74.086578 C 194.024857 66.709198 208.316833 53.209198 217.870743 44.086578 C 227.424652 34.963959 239.524872 23.691071 244.760132 19.035706 C 249.995377 14.380371 255.065033 10.571411 256.026001 10.571411 C 256.987 10.571411 261.76178 14.099426 266.636627 18.411438 C 271.511475 22.72345 280.450012 31.033936 286.5 36.879242 C 292.549988 42.724518 304.434296 54.030457 312.909515 62.00351 C 321.384766 69.976563 332.340973 80.070007 337.256622 84.43338 C 342.172302 88.796753 346.877258 93.409241 347.712097 94.68338 C 349.069763 96.755402 349.069153 97.237549 347.706543 99.25 C 346.868652 100.487488 341.273102 106.658936 335.272034 112.964294 C 328.029663 120.573853 323.645416 124.428589 322.232849 124.428589 C 320.832062 124.428589 314.530182 118.972504 303.793671 108.464294 C 294.822571 99.683929 280.80603 86.216064 272.645782 78.535706 C 264.485535 70.855347 256.996155 64.571411 256.002686 64.571411 C 255.009232 64.571411 249.322113 69.055359 243.364639 74.535706 C 237.407166 80.016052 226.308456 90.575012 218.700836 98 C 211.093231 105.424988 200.825027 115.335266 195.882599 120.022858 C 188.256302 127.25592 187.017731 128.866791 187.698196 130.667389 C 188.139191 131.83432 194.431778 139.61319 201.681732 147.953766 C 208.931702 156.294342 218.156693 166.98291 222.181732 171.706146 C 226.206787 176.429382 232.256866 183.490234 235.626358 187.396912 C 238.99585 191.303619 245.970856 199.390076 251.126358 205.366821 C 256.28186 211.343597 262.637512 218.760468 265.25 221.848785 C 267.862488 224.937103 270 228.35788 270 229.4505 C 270 230.543152 267.637512 233.864807 264.75 236.83197 C 261.862488 239.799133 258.149994 243.074127 256.5 244.10968 C 253.712326 245.859253 251.394455 245.975464 223.750061 245.751648 C 207.387604 245.619171 153.61261 245.408875 104.250069 245.284302 C 54.887531 245.159729 13.0375 244.799408 11.25 244.483582 C 9.4625 244.167755 8 243.351837 8 242.67038 C 8 241.988953 16.037359 233.796844 25.860798 224.465698 C 35.684235 215.134552 50.101746 201.555847 57.899708 194.290771 C 65.69767 187.025696 79.059349 174.42572 87.592331 166.290771 C 96.125313 158.155853 104.207802 150.624634 105.553421 149.554749 L 108 147.609497 Z M 351 245.982605 C 328.343506 245.991791 326.255981 245.84375 323.256866 244.015137 C 321.473175 242.927582 299.648163 221.777496 274.756866 197.014954 C 245.912079 168.319336 229.397308 151.177612 229.216827 149.746063 C 229.000031 148.02652 231.866776 144.578156 241.446075 135.035706 C 248.584671 127.924561 254.767334 122.571411 255.841827 122.571411 C 256.963257 122.571411 271.206909 135.704834 291.050507 155.035706 C 309.379425 172.891083 336.778748 199.649994 351.937897 214.5 C 367.097046 229.350006 379.636108 242.228851 379.80246 243.119659 C 379.98761 244.110992 379.211761 244.978516 377.80246 245.355988 C 376.536102 245.69519 364.475006 245.977142 351 245.982605 Z M 474 245.984802 C 450.647522 245.995453 447.11853 245.789215 444.288177 244.248444 C 442.521698 243.286804 420.562073 222.25 395.489044 197.5 C 356.75766 159.267609 349.966888 152.143646 350.335022 150.130554 C 350.57959 148.793243 356.154846 142.351349 363.134155 135.341888 C 371.584015 126.85556 376.044006 123.060944 377.217865 123.359314 C 378.16272 123.599487 384.434998 128.904358 391.156311 135.14798 C 397.877594 141.391602 409.054443 151.899994 415.993713 158.5 C 422.932983 165.100006 437.772156 179.049988 448.969635 189.5 C 460.167114 199.950012 477.354736 216.12262 487.164337 225.439148 C 496.973969 234.755646 505 242.91568 505 243.57251 C 505 244.22934 503.987488 245.038086 502.75 245.36972 C 501.512512 245.701355 488.575012 245.978149 474 245.984802 Z"/>
    </g>
</svg>
